<?xml version="1.0" encoding="utf-8"?>
<!-- Generator: Adobe Illustrator 25.2.3, SVG Export Plug-In . SVG Version: 6.00 Build 0)  -->
<!DOCTYPE svg PUBLIC "-//W3C//DTD SVG 1.1//EN" "http://www.w3.org/Graphics/SVG/1.1/DTD/svg11.dtd" [
	<!ENTITY ns_extend "http://ns.adobe.com/Extensibility/1.0/">
	<!ENTITY ns_ai "http://ns.adobe.com/AdobeIllustrator/10.0/">
	<!ENTITY ns_graphs "http://ns.adobe.com/Graphs/1.0/">
	<!ENTITY ns_vars "http://ns.adobe.com/Variables/1.0/">
	<!ENTITY ns_imrep "http://ns.adobe.com/ImageReplacement/1.0/">
	<!ENTITY ns_sfw "http://ns.adobe.com/SaveForWeb/1.0/">
	<!ENTITY ns_custom "http://ns.adobe.com/GenericCustomNamespace/1.0/">
	<!ENTITY ns_adobe_xpath "http://ns.adobe.com/XPath/1.0/">
]>
<svg version="1.1" id="Layer_1" xmlns:x="&ns_extend;" xmlns:i="&ns_ai;" xmlns:graph="&ns_graphs;"
	 xmlns="http://www.w3.org/2000/svg" xmlns:xlink="http://www.w3.org/1999/xlink" x="0px" y="0px" viewBox="0 0 250 250"
	 style="enable-background:new 0 0 250 250;" xml:space="preserve">
<style type="text/css">
	.st0{fill:#0D96D4;}
</style>
<metadata>
	<sfw  xmlns="&ns_sfw;">
		<slices></slices>
		<sliceSourceBounds  bottomLeftOrigin="true" height="203.3" width="219.4" x="15.3" y="-232"></sliceSourceBounds>
	</sfw>
</metadata>
<path class="st0" d="M120.4,96.3v63.1c0,6-4.9,11-11,11s-11-4.9-11-11V96.3c0-6,4.9-11,11-11S120.4,90.2,120.4,96.3z"/>
<path class="st0" d="M178.8,96.5v63.1c0,6.1-4.9,11-10.9,11c-6,0-11-4.9-11-11V96.5c0-6,4.9-10.9,11-10.9
	C173.9,85.5,178.8,90.4,178.8,96.5z"/>
<path class="st0" d="M186.1,187.4c0,2.9-1.1,5.7-3.2,7.8c-2.1,2.1-4.8,3.2-7.8,3.2h-96c-6,0-11-4.9-11-11v-119c0-6,4.9-11,11-11
	c2.9,0,5.7,1.1,7.8,3.2c2,2,3.2,4.9,3.2,7.8v108.1h85C181.2,176.5,186.1,181.4,186.1,187.4z"/>
<path class="st0" d="M182,68.4c0,2.9-1.1,5.7-3.2,7.8c-2.1,2.1-4.8,3.2-7.8,3.2h-21.2v77.6c0,6.1-4.9,11-11,11c-6,0-11-4.9-11-11
	V79.3h-20.5c-6,0-11-4.9-11-11c0-6,4.9-11,11-11H171C177,57.4,182,62.3,182,68.4z"/>
<path class="st0" d="M234.7,55.3c0,14.7-11.9,26.6-26.6,26.6c-14.7,0-26.6-12-26.6-26.6c0-1.6,0.1-3.2,0.4-4.7H68.1
	c0.3,1.5,0.4,3.1,0.4,4.7c0,14.7-11.9,26.6-26.6,26.6c-14.7,0-26.6-12-26.6-26.6c0-14,10.8-25.4,24.5-26.5l0,0l0.4,0
	c0.6,0,1.1,0,1.7,0c0.2,0,0.4,0,0.6,0l0.4,0L211.9,29l0,0C224.8,30.8,234.7,41.9,234.7,55.3z"/>
<path class="st0" d="M204.4,230v2H47.9v-2c0-13.5,12.5-25.6,22.3-25.6h112.6C192.5,204.5,204.4,216.3,204.4,230z"/>
</svg>
